# xmcd
#
# Track frame offsets:
#	150
#	17747
#	34555
#	46992
#	62475
#	75155
#	89945
#	106457
#	122904
#	140320
#	157090
#	175807
#	190157
#	205645
#
# Disc length: 2924 seconds
#
# Revision: 0
# Processed by: cddbd v1.5.1PL2 Copyright (c) Steve Scherf et al.
# Submitted via: dBpowerAMP V4.0
#
DISCID=b40b6a0e
DTITLE=CHICO REY E PARANÁ - O QUE TIVER QUE SER SERÁ
DYEAR=1900
DGENRE=Country
TTITLE0=O QUE TIVER QUE SER SERÁ
TTITLE1=ALGU´ME NA MULTIDÃO
TTITLE2=CANTANDO
TTITLE3=NUNCA VI AMOR ASSIM
TTITLE4=CORPO A CORPO COM  O ANIMAL
TTITLE5=GAIOLAS IGUAIS
TTITLE6=MADRUGADA NA CIDADE
TTITLE7=O AMOR, VOCÊ E EU
TTITLE8=LÁGRIMAS NA AREIA
TTITLE9=BASTOU APENAS UM OLHAR
TTITLE10=TRÊS CERVEJAS
TTITLE11=DOIS CAMINHOS
TTITLE12=DUPLAMENTE APAIXONADO
TTITLE13=SACO DE OURO
EXTD=
EXTT0=
EXTT1=
EXTT2=
EXTT3=
EXTT4=
EXTT5=
EXTT6=
EXTT7=
EXTT8=
EXTT9=
EXTT10=
EXTT11=
EXTT12=
EXTT13=
PLAYORDER=
